<svg width="14" height="14" viewBox="0 0 14 14" fill="none" xmlns="http://www.w3.org/2000/svg">
<path id="Vector" d="M7.62996 12.2182L9.8582 13.3491C10.0824 13.4625 10.3349 13.513 10.5872 13.495C10.8395 13.477 11.0816 13.3911 11.2861 13.2471C11.4906 13.1031 11.6493 12.9067 11.7444 12.6801C11.8395 12.4535 11.8671 12.2057 11.8242 11.9647L11.3995 9.56923C11.3621 9.35961 11.3782 9.14435 11.4461 8.94205C11.5141 8.73975 11.6321 8.55649 11.7898 8.40812L13.5902 6.71168C13.7715 6.5409 13.8998 6.32449 13.9604 6.08694C14.0211 5.84938 14.0118 5.60016 13.9336 5.36744C13.8554 5.13473 13.7113 4.92781 13.5178 4.77009C13.3242 4.61238 13.0889 4.51015 12.8383 4.47498L10.3497 4.12548C10.1325 4.09437 9.92644 4.01284 9.74904 3.88789C9.57163 3.76293 9.42821 3.59827 9.33106 3.40801L8.21503 1.23101C8.103 1.01158 7.92969 0.826831 7.71468 0.697647C7.49968 0.568463 7.25157 0.5 6.99841 0.5C6.74525 0.5 6.49713 0.568463 6.28213 0.697647C6.06713 0.826831 5.89381 1.01158 5.78179 1.23101L4.66893 3.41171C4.57179 3.60196 4.42837 3.76662 4.25096 3.89158C4.07356 4.01654 3.86745 4.09806 3.65031 4.12917L1.16167 4.47867C0.911136 4.51384 0.675779 4.61607 0.482219 4.77379C0.288659 4.9315 0.14462 5.13842 0.0663923 5.37113C-0.0118357 5.60385 -0.0211316 5.85308 0.0395559 6.09063C0.100243 6.32819 0.228493 6.54459 0.4098 6.71537L2.21022 8.41181C2.36792 8.56018 2.48586 8.74344 2.55385 8.94574C2.62185 9.14804 2.63785 9.3633 2.60049 9.57292L2.17266 11.9647C2.12936 12.206 2.15685 12.4542 2.25202 12.6812C2.34719 12.9082 2.50623 13.1049 2.71113 13.249C2.91603 13.3931 3.15859 13.4789 3.41134 13.4966C3.66408 13.5143 3.9169 13.4632 4.14116 13.3491L6.36941 12.2182C6.5639 12.1198 6.78016 12.0684 6.99968 12.0684C7.2192 12.0684 7.43546 12.1198 7.62996 12.2182Z" fill="url(#paint0_linear_122_761)"/>
<defs>
<linearGradient id="paint0_linear_122_761" x1="6.99841" y1="0.430472" x2="6.99841" y2="13.5497" gradientUnits="userSpaceOnUse">
<stop stop-color="#FFF650"/>
<stop offset="1" stop-color="#FFAB17"/>
</linearGradient>
</defs>
</svg>
