<svg width="9" height="12" viewBox="0 0 9 12" fill="none" xmlns="http://www.w3.org/2000/svg">
<path fill-rule="evenodd" clip-rule="evenodd" d="M2.66218 3.3222C2.55089 3.14143 2.31654 3.0772 2.14307 3.19956C-0.635951 5.15975 -1.53752 12 4.57934 12C10.1407 12 10.5993 5.09271 5.13136 0.445677C4.89397 0.243919 4.53552 0.395435 4.50121 0.705091L4.10307 4.298C4.06115 4.67631 3.56442 4.78777 3.36488 4.46364L2.66218 3.3222ZM3.74317 7.57626C3.64768 7.42696 3.45145 7.37333 3.31406 7.48529C2.1432 8.43951 1.84161 11.25 4.53607 11.25C6.96402 11.25 7.2523 8.46226 5.06914 6.44048C4.84351 6.23153 4.49221 6.38098 4.45703 6.68648L4.37131 7.43104C4.33449 7.75082 3.91662 7.84744 3.74317 7.57626V7.57626Z" fill="#EFEDF6"/>
</svg>
