<svg width="12" height="13" viewBox="0 0 12 13" fill="none" xmlns="http://www.w3.org/2000/svg">
<path d="M11.9457 1.58597C11.9457 0.988688 11.457 0.5 10.8597 0.5H6.89593C6.62443 0.5 6.35294 0.608597 6.13575 0.825792L0.325792 6.63575C-0.108597 7.07014 -0.108597 7.77602 0.325792 8.21041L4.28959 12.1742C4.72398 12.6086 5.42986 12.6086 5.86425 12.1742L11.6742 6.36425C11.8914 6.14706 12 5.87557 12 5.60407L11.9457 1.58597ZM8.68778 4.89819C8.0905 4.89819 7.60181 4.4095 7.60181 3.81222C7.60181 3.21493 8.0905 2.72624 8.68778 2.72624C9.28507 2.72624 9.77376 3.21493 9.77376 3.81222C9.77376 4.4095 9.28507 4.89819 8.68778 4.89819Z" fill="#EFEDF6"/>
</svg>
