<svg width="16" height="17" viewBox="0 0 16 17" fill="none" xmlns="http://www.w3.org/2000/svg">
<path d="M7.16284 3.73282L4.11797 0.688718C4.06052 0.631282 3.98665 0.582051 3.90458 0.549231C3.89637 0.549231 3.88817 0.549231 3.87996 0.541026C3.8143 0.51641 3.74864 0.5 3.67478 0.5C3.51063 0.5 3.3547 0.565641 3.2398 0.680513L0.178507 3.73282C-0.0595023 3.97077 -0.0595023 4.36462 0.178507 4.60256C0.416516 4.84051 0.810462 4.84051 1.04847 4.60256L3.05924 2.59231V15.8846C3.05924 16.221 3.33828 16.5 3.67478 16.5C4.01127 16.5 4.29032 16.221 4.29032 15.8846V2.60051L6.29288 4.60256C6.41599 4.72564 6.57193 4.78308 6.72786 4.78308C6.8838 4.78308 7.03974 4.72564 7.16284 4.60256C7.40085 4.36462 7.40085 3.97897 7.16284 3.73282Z" fill="#EFEDF6"/>
<path d="M15.8215 12.3974C15.5835 12.1595 15.1895 12.1595 14.9515 12.3974L12.9408 14.4077V1.11538C12.9408 0.778974 12.6617 0.5 12.3252 0.5C11.9887 0.5 11.7097 0.778974 11.7097 1.11538V14.3995L9.70712 12.3974C9.46911 12.1595 9.07516 12.1595 8.83716 12.3974C8.59915 12.6354 8.59915 13.0292 8.83716 13.2672L11.882 16.3113C11.9395 16.3687 12.0133 16.4179 12.0954 16.4508C12.1036 16.4508 12.1118 16.4508 12.12 16.459C12.1857 16.4836 12.2596 16.5 12.3334 16.5C12.4976 16.5 12.6535 16.4344 12.7684 16.3195L15.8215 13.2672C16.0595 13.021 16.0595 12.6354 15.8215 12.3974Z" fill="#EFEDF6"/>
</svg>
