<svg width="26" height="20" viewBox="0 0 26 20" fill="none" xmlns="http://www.w3.org/2000/svg">
<g opacity="0.6">
<path d="M9.51576 18.2609C9.51576 17.3004 10.2904 16.5217 11.2459 16.5217C12.2014 16.5217 12.976 17.3004 12.976 18.2609C12.976 19.2214 12.2014 20 11.2459 20C10.2904 20 9.51576 19.2214 9.51576 18.2609Z" fill="#EFEDF6"/>
<path d="M19.0315 18.2609C19.0315 17.3004 19.8061 16.5217 20.7617 16.5217C21.7172 16.5217 22.4918 17.3004 22.4918 18.2609C22.4918 19.2214 21.7172 20 20.7617 20C19.8061 20 19.0315 19.2214 19.0315 18.2609Z" fill="#EFEDF6"/>
<path d="M0 1.08696C0 0.486636 0.48412 0 1.08134 0H4.08996C4.76144 0 5.37228 0.390519 5.65692 1.00183L7.51154 4.9845C7.52455 4.98291 7.53762 4.98148 7.55074 4.98015L24.0958 3.31702C25.3598 3.18996 26.3245 4.42988 25.8973 5.63248L22.9019 14.0632C22.6559 14.7553 22.0037 15.2174 21.2725 15.2174H10.6501C9.96131 15.2174 9.33811 14.8067 9.06345 14.1717L7.0997 9.63156C7.07937 9.59627 7.06073 9.5597 7.04394 9.52191L3.77779 2.17391H1.08134C0.48412 2.17391 0 1.68728 0 1.08696Z" fill="#EFEDF6"/>
</g>
</svg>
