<svg width="99" height="36" viewBox="0 0 99 36" fill="none" xmlns="http://www.w3.org/2000/svg">
<path d="M8.32909 8.83902C8.32909 10.1659 8.92403 11.6488 10.1139 13.2878C11.3434 14.8878 13.2076 16.6244 15.7063 18.4976C20.8624 22.322 23.4404 26.0683 23.4404 29.7366C23.4404 30.9073 23.2223 31.8829 22.786 32.6634C22.3894 33.4439 21.854 34.0878 21.1797 34.5951C20.5054 35.1024 19.7122 35.4732 18.8 35.7073C17.9274 35.9024 16.9953 36 16.0038 36C12.7911 36 9.83626 35.2 7.13922 33.6C4.44218 32 2.06244 29.9122 0 27.3366V16.8C0.51561 18.2439 1.34852 19.7268 2.49873 21.2488C3.6886 22.7317 4.99746 24.1171 6.4253 25.4049C7.85314 26.6537 9.28099 27.6878 10.7088 28.5073C12.1763 29.3268 13.4654 29.7561 14.5759 29.7951C16.2021 29.7561 17.0151 29.1707 17.0151 28.039C17.0151 27.5317 16.8168 26.9659 16.4202 26.3415C16.0236 25.7171 15.508 25.0537 14.8734 24.3512C14.2784 23.6488 13.6042 22.9268 12.8506 22.1854C12.097 21.4439 11.3434 20.7415 10.5898 20.078L9.57846 19.1415C8.62656 18.2829 7.71433 17.3854 6.84175 16.4488C5.96918 15.5122 5.17594 14.5561 4.46201 13.5805C3.78775 12.5659 3.23248 11.5317 2.7962 10.478C2.39957 9.38537 2.20126 8.29268 2.20126 7.2C2.20126 6.22439 2.37974 5.30732 2.7367 4.44878C3.13332 3.59024 3.66877 2.84878 4.34303 2.22439C5.05695 1.56097 5.87003 1.05366 6.78226 0.702437C7.73416 0.312193 8.76538 0.117072 9.87592 0.117072C10.7882 0.117072 11.7004 0.27317 12.6126 0.585365C13.5645 0.897559 14.4569 1.32683 15.2898 1.87317C16.1227 2.38048 16.8763 2.98536 17.5506 3.6878C18.2645 4.39024 18.8396 5.15122 19.2759 5.97073V0.351218H24.5113V14.6341L19.4544 17.3268V16.4488C19.2164 15.4732 18.8198 14.4195 18.2645 13.2878C17.7489 12.1171 17.0945 11.0244 16.3012 10.0098C15.5476 8.99512 14.6949 8.1561 13.743 7.49268C12.7911 6.79024 11.7599 6.43902 10.6493 6.43902C9.89575 6.43902 9.32065 6.69268 8.92403 7.2C8.5274 7.70732 8.32909 8.25366 8.32909 8.83902Z" fill="#EFEDF6"/>
<path d="M42.8958 15.161C42.8958 15.9415 42.8363 16.9171 42.7173 18.0878C42.6379 19.2585 42.519 20.4488 42.3603 21.6585C42.2413 22.8293 42.1025 23.9805 41.9439 25.1122C41.8249 26.2049 41.7257 27.0829 41.6464 27.7463C41.6067 28.0585 41.5671 28.3512 41.5274 28.6244C41.4877 28.8976 41.4679 29.1317 41.4679 29.3268C41.4679 29.7951 41.6266 30.0878 41.9439 30.2049C42.6181 30.0098 43.332 29.2488 44.0856 27.922C44.8789 26.5951 45.6126 25.0146 46.2869 23.1805C46.9611 21.3463 47.5561 19.4146 48.0717 17.3854C48.627 15.3171 49.0236 13.4634 49.2616 11.8244V23.8244C49.2616 24.878 49.0831 26.1073 48.7261 27.5122C48.3692 28.9171 47.8337 30.2439 47.1198 31.4927C46.4455 32.7415 45.5928 33.8146 44.5616 34.7122C43.5304 35.5707 42.3207 36 40.9325 36C40.0202 36 39.2666 35.8829 38.6717 35.6488C38.0768 35.4146 37.6008 35.0829 37.2439 34.6537C36.9266 34.1854 36.7084 33.6585 36.5894 33.0732C36.4705 32.4488 36.411 31.7854 36.411 31.0829C36.411 30.2634 36.4705 29.2683 36.5894 28.0976C36.7084 26.9268 36.8472 25.7366 37.0059 24.5268C37.1645 23.278 37.3034 22.0683 37.4223 20.8976C37.5413 19.7268 37.6008 18.6927 37.6008 17.7951C37.6008 16.6634 37.4223 15.8634 37.0654 15.3951C36.7481 14.8878 36.3118 14.6341 35.7565 14.6341C35.2806 14.6341 34.8046 14.7902 34.3287 15.1024C33.8527 15.4146 33.4165 15.8049 33.0198 16.2732C32.6629 16.7024 32.3456 17.1902 32.0679 17.7366C31.7903 18.2439 31.6316 18.7317 31.592 19.2L29.7477 35.7659H24.5718L27.9034 0.351218H33.7337L32.5439 11.239C33.5354 10.5366 34.4477 10.0098 35.2806 9.65854C36.1532 9.26829 37.0456 9.07317 37.9578 9.07317C39.346 9.07317 40.516 9.56097 41.4679 10.5366C42.4198 11.4732 42.8958 13.0146 42.8958 15.161Z" fill="#EFEDF6"/>
<path d="M63.2435 0.117072C65.1869 0.117072 66.8527 0.54634 68.2409 1.40488C69.6688 2.22439 70.819 3.33658 71.6915 4.74146C72.6038 6.14634 73.2582 7.76585 73.6548 9.6C74.0911 11.3951 74.3093 13.2488 74.3093 15.161C74.3093 17.3854 74.0316 19.7268 73.4763 22.1854C72.9607 24.6049 72.108 26.8488 70.9181 28.9171C69.7679 30.9463 68.2806 32.6244 66.4561 33.9512C64.6713 35.2781 62.5097 35.9415 59.9713 35.9415C58.0279 35.9415 56.362 35.5317 54.9739 34.7122C53.5857 33.8537 52.4355 32.722 51.5232 31.3171C50.6507 29.9122 49.9962 28.3122 49.56 26.5171C49.1633 24.722 48.965 22.8878 48.965 21.0146C48.965 18.7902 49.2228 16.4488 49.7384 13.9902C50.2937 11.5317 51.1464 9.2878 52.2967 7.25854C53.4469 5.19024 54.9144 3.49268 56.6992 2.16585C58.5236 0.799999 60.7051 0.117072 63.2435 0.117072ZM67.5865 16.7415C67.5865 15.4146 67.4873 14.0683 67.289 12.7024C67.1304 11.3366 66.8329 10.0878 66.3966 8.9561C65.9603 7.82439 65.3456 6.8878 64.5523 6.14634C63.7987 5.36585 62.827 4.93658 61.6371 4.85854C60.4473 5.05366 59.4557 5.73659 58.6625 6.90732C57.9089 8.03902 57.2941 9.36585 56.8182 10.8878C56.3819 12.3707 56.0646 13.9122 55.8663 15.5122C55.7076 17.0732 55.6283 18.3805 55.6283 19.4341C55.6283 20.722 55.7275 22.0488 55.9258 23.4146C56.1241 24.7805 56.4414 26.0293 56.8777 27.161C57.3536 28.2927 57.9684 29.2488 58.722 30.0293C59.4755 30.7707 60.4274 31.1805 61.5776 31.2585C62.7279 31.0244 63.6797 30.3415 64.4333 29.2098C65.2266 28.039 65.8413 26.7122 66.2776 25.2293C66.7536 23.7073 67.0907 22.1854 67.289 20.6634C67.4873 19.1024 67.5865 17.7951 67.5865 16.7415Z" fill="#EFEDF6"/>
<path d="M74.0722 35.7659L78.7127 6.84878C79.6249 6.38049 80.5372 6.04878 81.4494 5.85366C82.3616 5.61951 83.2342 5.4439 84.0671 5.32683C83.9878 5.71707 83.8688 6.49756 83.7102 7.66829C83.5515 8.83902 83.3929 10.0878 83.2342 11.4146C83.0756 12.7415 82.9169 13.9707 82.7583 15.1024C82.5996 16.2341 82.5005 16.9756 82.4608 17.3268C82.4211 17.522 82.4013 17.6976 82.4013 17.8537C82.4013 18.0098 82.4013 18.1659 82.4013 18.322C82.4013 19.5707 82.7384 20.4878 83.4127 21.0732C84.1266 21.6585 84.9992 21.9512 86.0304 21.9512C86.8237 21.9512 87.6367 21.7366 88.4696 21.3073C89.3422 20.839 90.1355 20.1756 90.8494 19.3171C91.5633 18.4585 92.1582 17.4439 92.6342 16.2732C93.1101 15.0634 93.3481 13.7171 93.3481 12.2341C93.3481 11.2195 93.1895 10.2439 92.8722 9.30732C92.5945 8.37073 92.1384 7.55122 91.5038 6.84878C90.9089 6.14634 90.0958 5.58049 89.0646 5.15122C88.073 4.72195 86.8633 4.50731 85.4355 4.50731C84.8009 4.50731 83.9878 4.6439 82.9962 4.91707C82.0047 5.15122 80.9735 5.46341 79.9026 5.85366C78.8317 6.2439 77.7608 6.65366 76.6899 7.08293C75.6587 7.51219 74.7663 7.92195 74.0127 8.31219V3.0439C76.1545 1.95122 78.3359 1.17073 80.557 0.702437C82.7781 0.234146 85.1578 0 87.6962 0C89.6793 0 91.3848 0.292683 92.8127 0.878048C94.2405 1.42439 95.4106 2.18536 96.3228 3.16097C97.235 4.13658 97.9093 5.2878 98.3456 6.61463C98.7819 7.90244 99 9.2878 99 10.7707C99 12.9951 98.643 15.122 97.9291 17.1512C97.2152 19.1805 96.2633 20.9756 95.0734 22.5366C93.8835 24.0976 92.5152 25.3463 90.9684 26.2829C89.4612 27.2195 87.9144 27.6878 86.3279 27.6878C85.4553 27.6878 84.5629 27.5122 83.6507 27.161C82.7781 26.7707 81.9055 26.1854 81.033 25.4049C80.7553 27.122 80.4579 28.761 80.1406 30.322C79.8629 31.8439 79.5853 33.6195 79.3076 35.6488L74.0722 35.7659Z" fill="#EFEDF6"/>
</svg>
