<svg width="13" height="13" viewBox="0 0 13 13" fill="none" xmlns="http://www.w3.org/2000/svg">
<path id="Soft Star" d="M6.33988 0.642237C6.3624 0.452588 6.6376 0.452588 6.66012 0.642237L6.8489 2.23322C7.09266 4.28761 8.71239 5.90734 10.7668 6.1511L12.3577 6.33988C12.5474 6.3624 12.5474 6.6376 12.3577 6.66012L10.7668 6.8489C8.71239 7.09266 7.09266 8.71239 6.8489 10.7668L6.66012 12.3577C6.6376 12.5474 6.3624 12.5474 6.33988 12.3577L6.1511 10.7668C5.90734 8.71239 4.28761 7.09266 2.23322 6.8489L0.642237 6.66012C0.452588 6.6376 0.452588 6.3624 0.642237 6.33988L2.23322 6.1511C4.28761 5.90734 5.90734 4.28761 6.1511 2.23322L6.33988 0.642237Z" fill="#EFEDF6"/>
</svg>
